<?xml version="1.0" encoding="UTF-8"?> <svg xmlns="http://www.w3.org/2000/svg" xmlns:xlink="http://www.w3.org/1999/xlink" id="tabby-badge" width="133.663" height="53.243" viewBox="0 0 133.663 53.243"><defs><linearGradient id="linear-gradient" y1="0.5" x2="1" y2="0.5" gradientUnits="objectBoundingBox"><stop offset="0" stop-color="#3bff9d"></stop><stop offset="1" stop-color="#3bffc8"></stop></linearGradient></defs><path id="Path_78550" data-name="Path 78550" d="M123.311,53.243H10.352A10.363,10.363,0,0,1,0,42.878V10.352A10.36,10.36,0,0,1,10.352,0h112.96a10.351,10.351,0,0,1,10.352,10.352V42.878A10.363,10.363,0,0,1,123.311,53.243Z" fill="url(#linear-gradient)"></path><g id="Group_38711" data-name="Group 38711" transform="translate(12.411 10.057)"><g id="Group_38701" data-name="Group 38701" transform="translate(96.095 6.834)"><path id="Path_78551" data-name="Path 78551" d="M818.469,126.3l-7.142,27.3-.027.053h5.577l7.169-27.351Z" transform="translate(-811.3 -126.3)" fill="#292929"></path></g><g id="Group_38702" data-name="Group 38702" transform="translate(3.263)"><path id="Path_78552" data-name="Path 78552" d="M128.742,97.562a6.027,6.027,0,0,1-2.688.615c-2.006,0-3.143-.321-3.263-1.939h0v-.107c0-.067-.013-.134-.013-.2V91.222l.013-.562v-3.33h-.013V85.913l.013-.562v-3.21l-4.975.655a6.218,6.218,0,0,0,5.3-5.965V75.2h-5.59v7.637l-.321.094V97.08c.187,3.972,2.809,6.339,7.1,6.339a11.511,11.511,0,0,0,4.48-.923l.027-.013V97.522Z" transform="translate(-117.2 -75.2)" fill="#292929"></path></g><g id="Group_38703" data-name="Group 38703" transform="translate(0 5.804)"><path id="Path_78553" data-name="Path 78553" d="M108.488,118.6,92.8,121.021v3.972l15.688-2.421Z" transform="translate(-92.8 -118.6)" fill="#292929"></path></g><g id="Group_38704" data-name="Group 38704" transform="translate(0 11.622)"><path id="Path_78554" data-name="Path 78554" d="M108.488,162.1,92.8,164.521v3.8l15.688-2.421Z" transform="translate(-92.8 -162.1)" fill="#292929"></path></g><g id="Group_38706" data-name="Group 38706" transform="translate(17.427 6.42)"><g id="Group_38705" data-name="Group 38705"><path id="Path_78555" data-name="Path 78555" d="M238.949,130.235c-.227-4.414-2.982-7.035-7.476-7.035a7.463,7.463,0,0,0-6.166,2.889c-1.444,1.886-2.207,4.654-2.207,8.011s.762,6.139,2.207,8.011A7.463,7.463,0,0,0,231.472,145c4.494,0,7.262-2.635,7.476-7.075v6.66h5.59V123.655l-5.59.856m.294,9.589c0,3.919-2.06,6.446-5.229,6.446-3.277,0-5.229-2.407-5.229-6.446s1.953-6.487,5.229-6.487a4.711,4.711,0,0,1,3.852,1.792A7.616,7.616,0,0,1,239.243,134.1Z" transform="translate(-223.1 -123.2)" fill="#292929"></path></g></g><g id="Group_38709" data-name="Group 38709" transform="translate(42.102 0.789)"><g id="Group_38707" data-name="Group 38707"><path id="Path_78556" data-name="Path 78556" d="M420.667,86.731c-4.507,0-7.262,2.621-7.476,7.048V81.1l-5.59.856v26.16h5.59v-6.66c.214,4.44,2.982,7.075,7.476,7.075,5.269,0,8.412-4.079,8.412-10.9S425.936,86.731,420.667,86.731Zm-2.541,17.347c-3.183,0-5.229-2.528-5.229-6.446a7.548,7.548,0,0,1,1.378-4.681,4.711,4.711,0,0,1,3.852-1.792c3.277,0,5.229,2.421,5.229,6.487C423.355,101.67,421.4,104.077,418.126,104.077Z" transform="translate(-407.6 -81.1)" fill="#292929"></path></g><g id="Group_38708" data-name="Group 38708" transform="translate(23.619)"><path id="Path_78557" data-name="Path 78557" d="M597.267,86.731c-4.507,0-7.262,2.621-7.476,7.048V81.1l-5.591.856v26.16h5.591v-6.66c.214,4.44,2.982,7.075,7.476,7.075,5.27,0,8.412-4.079,8.412-10.9S602.536,86.731,597.267,86.731Zm-2.528,17.347c-3.183,0-5.229-2.528-5.229-6.446a7.548,7.548,0,0,1,1.378-4.681,4.711,4.711,0,0,1,3.852-1.792c3.277,0,5.229,2.421,5.229,6.487C599.968,101.67,598.016,104.077,594.739,104.077Z" transform="translate(-584.2 -81.1)" fill="#292929"></path></g></g><g id="Group_38710" data-name="Group 38710" transform="translate(87.214 6.834)"><path id="Path_78558" data-name="Path 78558" d="M744.9,126.3h5.965l4.855,20.944h-5.35Z" transform="translate(-744.9 -126.3)" fill="#292929"></path></g></g></svg> 