<?xml version="1.0" encoding="UTF-8"?> <svg xmlns="http://www.w3.org/2000/svg" id="Layer_1" data-name="Layer 1" viewBox="0 0 700.37 98.87"><path d="M344.67,21.89c-8.57-3.22-16.86-4.78-27.3-2.57-8.15,1.72-14.7,5-19,13.18,1.89,1.54,3.59,3,5.25,4.45,2.73,2.37,5.56,4.81,9.35,7.65,3-4.28,8.24-9.1,13.86-9.21,6.52-.13,12.77,3.46,13.8,8.72.42,2.18.7,11.19.7,11.19l-3.42.73a3,3,0,0,1-2.1,0l-.54-.21-.44-.17a63.72,63.72,0,0,0-22-4.28,48.5,48.5,0,0,0-7.56.59c-7.68,1.21-16.81,5.55-16.65,19.4.06,5.27,1.16,9.22,3.48,12.43a21.75,21.75,0,0,0,18.23,9.31,35.42,35.42,0,0,0,23.91-8.32c.14-.11,1.73-1.5,2.19-1.86l4.71-3.65V93h19.65V45C360.8,34.13,354.88,25.73,344.67,21.89ZM338.6,67c-4.2,7.52-11.05,11.77-18.93,11.77-.33,0-.67,0-1,0h0a23.28,23.28,0,0,1-4.92-.63c-5.89-1.55-9.24-6.29-9-12.67l.12-2.79H341Z"></path><path d="M549.93,21.89c-8.57-3.22-16.86-4.78-27.29-2.57-8.16,1.72-14.71,5-19,13.18,1.89,1.54,3.59,3,5.25,4.45,2.74,2.37,5.56,4.81,9.35,7.65,3-4.28,8.25-9.1,13.86-9.21,6.53-.13,12.77,3.46,13.8,8.72.42,2.18.7,11.19.7,11.19l-3.41.73a3,3,0,0,1-2.1,0c-.17-.06-.36-.13-.54-.21l-.45-.17a63.72,63.72,0,0,0-22-4.28,48.5,48.5,0,0,0-7.56.59c-7.68,1.21-16.81,5.55-16.65,19.4.06,5.27,1.17,9.22,3.48,12.43a21.75,21.75,0,0,0,18.23,9.31,35.44,35.44,0,0,0,23.92-8.32c.13-.11,1.73-1.5,2.18-1.86l4.71-3.65V93h19.65V45C566.06,34.13,560.14,25.73,549.93,21.89ZM543.86,67c-4.19,7.52-11.05,11.77-18.92,11.77-.34,0-.68,0-1,0h0a23.19,23.19,0,0,1-4.91-.63c-5.9-1.55-9.25-6.29-9-12.67l.12-2.79h36.12Z"></path><path d="M684.18,21.89c-8.57-3.22-16.86-4.78-27.3-2.57-8.15,1.72-14.7,5-19,13.18,1.89,1.54,3.59,3,5.25,4.45,2.73,2.37,5.56,4.81,9.35,7.65,3-4.28,8.24-9.1,13.86-9.21,6.53-.13,12.77,3.46,13.8,8.72.42,2.18.7,11.19.7,11.19l-3.42.73a3,3,0,0,1-2.09,0c-.17-.06-.36-.13-.54-.21l-.45-.17a63.72,63.72,0,0,0-22-4.28,48.5,48.5,0,0,0-7.56.59c-7.68,1.21-16.81,5.55-16.65,19.4.06,5.27,1.16,9.22,3.48,12.43a21.75,21.75,0,0,0,18.23,9.31,35.44,35.44,0,0,0,23.92-8.32c.13-.11,1.73-1.5,2.18-1.86l4.71-3.65V93h19.65V45C700.31,34.13,694.39,25.73,684.18,21.89ZM678.11,67c-4.2,7.52-11.05,11.77-18.93,11.77-.33,0-.67,0-1,0h0a23.28,23.28,0,0,1-4.92-.63c-5.89-1.55-9.24-6.29-9-12.67l.12-2.79h36.11Z"></path><path d="M619.89,24.46C613.53,24.75,609,27.53,606,33c-.33.6-2.45,4.76-2.45,4.76l-4.71-1.09,0-2.32V25.43h-19V93.15h19.05V87q0-9.56,0-19.09V66.7c0-2.25-.15-4.58,0-6.91a17.56,17.56,0,0,1,15.41-16.24c2.66-.38,9.35-.41,10.08-.42V24.42C622.79,24.4,621.33,24.39,619.89,24.46Z"></path><path d="M273.91,77.33a39.57,39.57,0,0,1-5-.4c-5-.82-8.19-3.28-9.55-7.33a17,17,0,0,1-1-5.27V34.09l2.95-.13c6.31-.31,13-.77,19.35-2.53l-4.05-13.81-18.25,2.71V0H236.81V20.33H222.25V34.27h14.56s0,28.75.12,36.09A23.5,23.5,0,0,0,240.66,83c2.9,4.41,7.11,7.17,13.27,8.69,6.63,1.63,13.35,1.55,20.45,1.47l1.7,0V77.41l-.82,0Z"></path><path d="M438.92,55c0-6.84,4.6-12.24,10.85-12.82,7.54-.71,12.84,3.06,14.19,10.07a19.64,19.64,0,0,1,.25,3.73c0,10.17,0,20.25,0,30.34v6.74h19V82.57c0-11.77,0-23.54,0-35.31a36.23,36.23,0,0,0-.54-6.58C481.09,32.28,476.59,27.16,469,25c-8.22-2.3-22-.58-28.4,10.61l-2.92,5.84C436,33.07,431.21,27,423.57,24.81c-8.22-2.3-20.62-.37-27,10.82l-2.86,5V25.42H373.83V93.15h19.8s0-26.85,0-36.74a29.67,29.67,0,0,1,.24-3.79,11.52,11.52,0,0,1,8.7-10.08c5.42-1.4,11.05.34,14,4.35a14.35,14.35,0,0,1,2.43,8.8c0,9.56,0,37.41,0,37.41l19.92,0Z"></path><path d="M9.09,26.33A43.09,43.09,0,0,0,0,40.62L63,92.86a43,43,0,0,0,8.47-6.81l1.23-1.28c23.87-24.92,8.19-51.92-1.32-61h0a43.17,43.17,0,0,0-61,1.31Z"></path><circle cx="139.06" cy="55.25" r="43.62"></circle></svg> 