<?xml version="1.0" encoding="UTF-8"?> <svg xmlns:sodipodi="http://sodipodi.sourceforge.net/DTD/sodipodi-0.dtd" xmlns:inkscape="http://www.inkscape.org/namespaces/inkscape" xmlns:svg="http://www.w3.org/2000/svg" xmlns="http://www.w3.org/2000/svg" xmlns:xlink="http://www.w3.org/1999/xlink" version="1.1" id="Layer_1" sodipodi:docname="Visa_Brandmark_Blue_RGB_2021.svgz" x="0px" y="0px" viewBox="0 0 2064.5 943.9" style="enable-background:new 0 0 2064.5 943.9;" xml:space="preserve"> <style type="text/css"> .st0{fill:#1434CB;} </style> <path id="path4" class="st0" d="M801.3,172.9L549.9,772.6h-164L262.2,294c-7.5-29.5-14-40.3-36.9-52.7c-37.3-20.2-98.9-39.2-153-51 l3.7-17.4h264c33.6,0,63.9,22.4,71.5,61.2l65.3,347l161.5-408.2L801.3,172.9L801.3,172.9z M1443.8,576.8 c0.7-158.3-218.9-167-217.4-237.7c0.5-21.5,21-44.4,65.8-50.2c22.2-2.9,83.5-5.1,152.9,26.8l27.2-127.2 c-37.3-13.5-85.4-26.6-145.1-26.6c-153.3,0-261.3,81.5-262.2,198.2c-1,86.3,77,134.5,135.8,163.2c60.5,29.4,80.8,48.3,80.5,74.5 c-0.4,40.2-48.2,58-92.9,58.7c-78,1.2-123.2-21.1-159.3-37.9l-28.1,131.4c36.2,16.6,103.2,31.1,172.5,31.9 C1336.7,782,1443.3,701.5,1443.8,576.8 M1848.8,772.6h143.5L1867,172.9h-132.4c-29.8,0-54.9,17.3-66,44l-232.8,555.7h162.9L1631,683 h199.1L1848.8,772.6z M1675.7,560.1l81.7-225.2l47,225.2H1675.7z M1022.9,172.9L894.6,772.6H739.5l128.3-599.7L1022.9,172.9 L1022.9,172.9z"></path> </svg> 